<svg width="290" height="213" viewBox="0 0 290 213" fill="none" xmlns="http://www.w3.org/2000/svg">
<g filter="url(#filter0_d_249_14)">
<rect width="285" height="208" rx="30" fill="black"/>
</g>
<path d="M125.016 54.2149C127.199 53.4873 129.559 54.6671 130.286 56.8501L134.453 69.3498C135.181 71.5329 134.001 73.8925 131.818 74.6202C129.635 75.3479 127.275 74.1681 126.548 71.985L122.381 59.4853C121.653 57.3022 122.833 54.9426 125.016 54.2149Z" fill="#9615DB"/>
<path d="M179.914 93.7747L163.71 109.979C162.083 111.606 159.445 111.606 157.818 109.979C156.191 108.352 156.191 105.714 157.818 104.087L174.022 87.8823C178.09 83.8145 178.09 77.2191 174.022 73.1512C169.954 69.0834 163.359 69.0834 159.291 73.1512L143.087 89.3554C141.46 90.9826 138.821 90.9826 137.194 89.3554C135.567 87.7283 135.567 85.0901 137.194 83.463L153.398 67.2588C160.72 59.9367 172.592 59.9367 179.914 67.2588C187.236 74.581 187.236 86.4526 179.914 93.7747Z" fill="#9615DB"/>
<path d="M106.259 114.398L122.463 98.1942C124.09 96.5667 126.728 96.5667 128.356 98.1942C129.983 99.8212 129.983 102.459 128.356 104.087L112.151 120.291C108.084 124.359 108.084 130.954 112.151 135.022C116.219 139.089 122.815 139.089 126.883 135.022L143.087 118.817C144.714 117.19 147.352 117.19 148.979 118.817C150.606 120.444 150.606 123.083 148.979 124.71L132.775 140.914C125.453 148.236 113.581 148.236 106.259 140.914C98.9369 133.592 98.9369 121.72 106.259 114.398Z" fill="#9615DB"/>
<path d="M102.555 63.5546C104.182 61.9275 106.82 61.9275 108.447 63.5546L120.947 76.0543C122.574 77.6815 122.574 80.3196 120.947 81.9468C119.32 83.5739 116.681 83.5739 115.054 81.9468L102.555 69.447C100.928 67.8199 100.928 65.1818 102.555 63.5546Z" fill="#9615DB"/>
<path d="M177.553 144.445C179.18 146.073 181.818 146.073 183.445 144.445C185.072 142.818 185.072 140.18 183.445 138.553L170.946 126.053C169.319 124.426 166.68 124.426 165.053 126.053C163.426 127.68 163.426 130.318 165.053 131.945L177.553 144.445Z" fill="#9615DB"/>
<path d="M155.713 151.15C156.441 153.333 158.801 154.513 160.984 153.785C163.167 153.058 164.347 150.698 163.619 148.515L159.453 136.015C158.725 133.832 156.365 132.652 154.182 133.38C151.999 134.108 150.819 136.467 151.547 138.65L155.713 151.15Z" fill="#9615DB"/>
<path d="M93.2149 86.0161C92.4873 88.1992 93.6671 90.5588 95.8501 91.2865L108.35 95.453C110.533 96.1809 112.892 95.0009 113.62 92.8179C114.348 90.6348 113.168 88.2752 110.985 87.5475L98.4853 83.3809C96.3022 82.6533 93.9426 83.8331 93.2149 86.0161Z" fill="#9615DB"/>
<path d="M190.15 116.713C192.333 117.441 193.513 119.801 192.785 121.984C192.057 124.167 189.698 125.347 187.515 124.619L175.015 120.452C172.832 119.725 171.652 117.365 172.38 115.182C173.108 112.999 175.467 111.819 177.65 112.547L190.15 116.713Z" fill="#9615DB"/>
<defs>
<filter id="filter0_d_249_14" x="0" y="0" width="290" height="213" filterUnits="userSpaceOnUse" color-interpolation-filters="sRGB">
<feFlood flood-opacity="0" result="BackgroundImageFix"/>
<feColorMatrix in="SourceAlpha" type="matrix" values="0 0 0 0 0 0 0 0 0 0 0 0 0 0 0 0 0 0 127 0" result="hardAlpha"/>
<feOffset dx="5" dy="5"/>
<feComposite in2="hardAlpha" operator="out"/>
<feColorMatrix type="matrix" values="0 0 0 0 0 0 0 0 0 0 0 0 0 0 0 0 0 0 0.25 0"/>
<feBlend mode="normal" in2="BackgroundImageFix" result="effect1_dropShadow_249_14"/>
<feBlend mode="normal" in="SourceGraphic" in2="effect1_dropShadow_249_14" result="shape"/>
</filter>
</defs>
</svg>
