<svg width="290" height="213" viewBox="0 0 290 213" fill="none" xmlns="http://www.w3.org/2000/svg">
<g filter="url(#filter0_d_248_50)">
<rect width="285" height="208" rx="30" fill="black"/>
</g>
<g clip-path="url(#clip0_248_50)">
<path fill-rule="evenodd" clip-rule="evenodd" d="M178 144C175.245 144 173 141.755 173 139C173 136.245 175.245 134 178 134C180.755 134 183 136.245 183 139C183 141.755 180.755 144 178 144ZM129.225 110.705C121.355 97.5353 136.36 82.2506 149.705 90.2256C154.485 93.0856 157.065 98.2001 157.065 103.06C157.065 117.91 137.135 123.935 129.225 110.705ZM108 144C105.245 144 103 141.755 103 139C103 136.245 105.245 134 108 134C110.755 134 113 136.245 113 139C113 141.755 110.755 144 108 144ZM108 74C105.245 74 103 71.755 103 69C103 66.245 105.245 64 108 64C110.755 64 113 66.245 113 69C113 71.755 110.755 74 108 74ZM178 64C180.755 64 183 66.245 183 69C183 71.755 180.755 74 178 74C175.245 74 173 71.755 173 69C173 66.245 175.245 64 178 64ZM178 124C175.69 124 173.525 124.565 171.57 125.5L162.905 116.834C167.855 109.354 168.76 99.3801 163.565 90.5051L171.57 82.4998C173.525 83.4348 175.69 84 178 84C186.285 84 193 77.285 193 69C193 60.715 186.285 54 178 54C169.715 54 163 60.715 163 69C163 71.31 163.565 73.4744 164.5 75.4294L156.895 83.0344C148.05 76.4744 136.765 76.6102 128.29 82.2202L121.5 75.4294C122.435 73.4744 123 71.31 123 69C123 60.715 116.285 54 108 54C99.715 54 93 60.715 93 69C93 77.285 99.715 84 108 84C110.31 84 112.475 83.4348 114.43 82.4998L121.22 89.2905C115.61 97.7605 115.47 109.05 122.035 117.895L114.43 125.5C112.475 124.565 110.31 124 108 124C99.715 124 93 130.715 93 139C93 147.285 99.715 154 108 154C116.285 154 123 147.285 123 139C123 136.69 122.435 134.526 121.5 132.571L129.505 124.565C138.345 129.74 148.325 128.875 155.835 123.905L164.5 132.571C163.565 134.526 163 136.69 163 139C163 147.285 169.715 154 178 154C186.285 154 193 147.285 193 139C193 130.715 186.285 124 178 124Z" fill="#9615DB"/>
</g>
<defs>
<filter id="filter0_d_248_50" x="0" y="0" width="290" height="213" filterUnits="userSpaceOnUse" color-interpolation-filters="sRGB">
<feFlood flood-opacity="0" result="BackgroundImageFix"/>
<feColorMatrix in="SourceAlpha" type="matrix" values="0 0 0 0 0 0 0 0 0 0 0 0 0 0 0 0 0 0 127 0" result="hardAlpha"/>
<feOffset dx="5" dy="5"/>
<feComposite in2="hardAlpha" operator="out"/>
<feColorMatrix type="matrix" values="0 0 0 0 0 0 0 0 0 0 0 0 0 0 0 0 0 0 0.25 0"/>
<feBlend mode="normal" in2="BackgroundImageFix" result="effect1_dropShadow_248_50"/>
<feBlend mode="normal" in="SourceGraphic" in2="effect1_dropShadow_248_50" result="shape"/>
</filter>
<clipPath id="clip0_248_50">
<rect width="100" height="100" fill="white" transform="translate(93 54)"/>
</clipPath>
</defs>
</svg>
