<svg width="290" height="213" viewBox="0 0 290 213" fill="none" xmlns="http://www.w3.org/2000/svg">
<g filter="url(#filter0_d_248_35)">
<rect width="285" height="208" rx="30" fill="black"/>
</g>
<path d="M169.915 55.5555C159.235 55.5555 150.546 64.244 150.546 74.924C150.546 85.6045 159.235 94.293 169.915 94.293C180.596 94.293 189.284 85.6045 189.284 74.924C189.284 64.2442 180.595 55.5555 169.915 55.5555ZM169.915 87.6289C162.912 87.6289 157.211 81.9291 157.211 74.9242C157.211 67.9197 162.912 62.2199 169.915 62.2199C176.925 62.2199 182.62 67.9197 182.62 74.9242C182.62 81.9293 176.925 87.6289 169.915 87.6289Z" fill="#9615DB"/>
<path d="M177.224 76.1627L172.551 74.2151C172.394 73.6225 172.056 73.1278 171.588 72.7618V65.4596C171.588 64.5387 170.839 63.7934 169.922 63.7934C168.998 63.7934 168.255 64.5387 168.255 65.4596V72.7604C167.599 73.2664 167.143 74.0282 167.143 74.9243C167.143 76.4573 168.38 77.7 169.915 77.7C170.423 77.7 170.872 77.5291 171.275 77.295L175.942 79.2375C176.15 79.3254 176.371 79.3662 176.586 79.3662C177.237 79.3662 177.855 78.9807 178.122 78.3409C178.473 77.492 178.077 76.5159 177.224 76.1627Z" fill="#9615DB"/>
<path d="M128.815 116.449C140.458 116.449 149.492 103.462 149.492 92.2902C149.492 80.8875 140.211 71.6102 128.815 71.6102C117.412 71.6102 108.137 80.8875 108.137 92.2902C108.137 103.462 117.165 116.449 128.815 116.449ZM128.815 79.0197C136.13 79.0197 142.078 84.9719 142.078 92.2904C142.078 99.8287 135.96 109.04 128.815 109.04C121.669 109.04 115.545 99.8285 115.545 92.2904C115.545 84.9719 121.493 79.0197 128.815 79.0197Z" fill="#9615DB"/>
<path d="M148.971 106.722C148.997 107.061 149.036 107.396 149.036 107.74C149.036 113.955 139.898 127.992 133.911 136.537L131.451 124.487L134.367 121.569C134.507 121.429 134.507 121.202 134.367 121.062L132.951 119.644C132.39 119.083 131.63 118.768 130.837 118.768H126.784C125.992 118.768 125.233 119.082 124.673 119.641L123.504 120.809C123.369 120.943 123.294 121.125 123.294 121.316C123.293 121.506 123.369 121.688 123.503 121.823L126.166 124.487L123.706 136.537C117.718 127.99 108.588 113.955 108.588 107.74C108.588 107.396 108.627 107.061 108.646 106.723C101.525 110.795 96.716 118.45 96.716 127.241V143.024C96.716 148.228 100.934 152.444 106.14 152.444H151.484C156.684 152.444 160.9 148.227 160.9 143.024V127.241C160.9 118.452 156.097 110.797 148.971 106.722Z" fill="#9615DB"/>
<defs>
<filter id="filter0_d_248_35" x="0" y="0" width="290" height="213" filterUnits="userSpaceOnUse" color-interpolation-filters="sRGB">
<feFlood flood-opacity="0" result="BackgroundImageFix"/>
<feColorMatrix in="SourceAlpha" type="matrix" values="0 0 0 0 0 0 0 0 0 0 0 0 0 0 0 0 0 0 127 0" result="hardAlpha"/>
<feOffset dx="5" dy="5"/>
<feComposite in2="hardAlpha" operator="out"/>
<feColorMatrix type="matrix" values="0 0 0 0 0 0 0 0 0 0 0 0 0 0 0 0 0 0 0.25 0"/>
<feBlend mode="normal" in2="BackgroundImageFix" result="effect1_dropShadow_248_35"/>
<feBlend mode="normal" in="SourceGraphic" in2="effect1_dropShadow_248_35" result="shape"/>
</filter>
</defs>
</svg>
