<svg width="290" height="213" viewBox="0 0 290 213" fill="none" xmlns="http://www.w3.org/2000/svg">
<g filter="url(#filter0_d_248_41)">
<rect width="285" height="208" rx="30" fill="black"/>
</g>
<g clip-path="url(#clip0_248_41)">
<path d="M93 141.5V79C93 77.2667 93.6 75.8 94.8 74.6C96 73.4 97.5 72.8 99.3 72.8H111.8C113.467 72.8 114.933 72.2 116.2 71C117.467 69.8 118.067 68.3 118 66.5C117.933 64.7 118.533 63.2333 119.8 62.1C121.067 60.9667 122.567 60.3667 124.3 60.3H161.8C163.467 60.3 164.933 60.9 166.2 62.1C167.467 63.3 168.067 64.7667 168 66.5C167.933 68.2333 168.533 69.7333 169.8 71C171.067 72.2667 172.567 72.8667 174.3 72.8H186.8C188.467 72.8 189.933 73.4 191.2 74.6C192.467 75.8 193.067 77.2667 193 79V141.5C193 143.233 192.4 144.733 191.2 146C190 147.267 188.533 147.867 186.8 147.8H99.3C97.5667 147.8 96.0667 147.2 94.8 146C93.5333 144.8 92.9333 143.3 93 141.5ZM111.8 104C111.8 108.267 112.6 112.333 114.2 116.2C115.8 120.067 118.033 123.367 120.9 126.1C123.767 128.833 127.1 131.067 130.9 132.8C134.7 134.533 138.733 135.367 143 135.3C148.667 135.3 153.9 133.9 158.7 131.1C163.5 128.3 167.3 124.5 170.1 119.7C172.9 114.9 174.3 109.667 174.3 104C174.3 98.3333 172.9 93.1333 170.1 88.4C167.3 83.6667 163.5 79.8667 158.7 77C153.9 74.1333 148.667 72.7333 143 72.8C138.8 72.8 134.767 73.6333 130.9 75.3C127.033 76.9667 123.7 79.1667 120.9 81.9C118.1 84.6333 115.867 87.9667 114.2 91.9C112.533 95.8333 111.733 99.8667 111.8 104ZM124.3 104C124.3 98.8667 126.1 94.4667 129.7 90.8C133.3 87.1333 137.733 85.3 143 85.3C148.267 85.3 152.7 87.1333 156.3 90.8C159.9 94.4667 161.733 98.8667 161.8 104C161.867 109.133 160.033 113.567 156.3 117.3C152.567 121.033 148.133 122.867 143 122.8C137.867 122.733 133.433 120.9 129.7 117.3C125.967 113.7 124.167 109.267 124.3 104Z" fill="#9615DB"/>
</g>
<defs>
<filter id="filter0_d_248_41" x="0" y="0" width="290" height="213" filterUnits="userSpaceOnUse" color-interpolation-filters="sRGB">
<feFlood flood-opacity="0" result="BackgroundImageFix"/>
<feColorMatrix in="SourceAlpha" type="matrix" values="0 0 0 0 0 0 0 0 0 0 0 0 0 0 0 0 0 0 127 0" result="hardAlpha"/>
<feOffset dx="5" dy="5"/>
<feComposite in2="hardAlpha" operator="out"/>
<feColorMatrix type="matrix" values="0 0 0 0 0 0 0 0 0 0 0 0 0 0 0 0 0 0 0.25 0"/>
<feBlend mode="normal" in2="BackgroundImageFix" result="effect1_dropShadow_248_41"/>
<feBlend mode="normal" in="SourceGraphic" in2="effect1_dropShadow_248_41" result="shape"/>
</filter>
<clipPath id="clip0_248_41">
<rect width="100" height="100" fill="white" transform="translate(93 54)"/>
</clipPath>
</defs>
</svg>
