<svg width="290" height="213" viewBox="0 0 290 213" fill="none" xmlns="http://www.w3.org/2000/svg">
<g filter="url(#filter0_d_248_25)">
<rect width="285" height="208" rx="30" fill="black"/>
</g>
<path fill-rule="evenodd" clip-rule="evenodd" d="M143 60.7083L180.5 82.3589V108.167H172.167V91.5003L147.167 105.934V144.905L143 147.311L105.5 125.66V82.3589L143 60.7083ZM172.167 112.333L172.167 124.833H184.667V133.167L172.167 133.167L172.167 145.667H163.833L163.833 133.167L151.333 133.167V124.833H163.833L163.833 112.333H172.167ZM113.833 91.5001L113.833 120.849L138.833 135.283V105.934L113.833 91.5001ZM143 70.3308L118.417 84.524L143 98.7172L167.583 84.524L143 70.3308Z" fill="#9615DB"/>
<defs>
<filter id="filter0_d_248_25" x="0" y="0" width="290" height="213" filterUnits="userSpaceOnUse" color-interpolation-filters="sRGB">
<feFlood flood-opacity="0" result="BackgroundImageFix"/>
<feColorMatrix in="SourceAlpha" type="matrix" values="0 0 0 0 0 0 0 0 0 0 0 0 0 0 0 0 0 0 127 0" result="hardAlpha"/>
<feOffset dx="5" dy="5"/>
<feComposite in2="hardAlpha" operator="out"/>
<feColorMatrix type="matrix" values="0 0 0 0 0 0 0 0 0 0 0 0 0 0 0 0 0 0 0.25 0"/>
<feBlend mode="normal" in2="BackgroundImageFix" result="effect1_dropShadow_248_25"/>
<feBlend mode="normal" in="SourceGraphic" in2="effect1_dropShadow_248_25" result="shape"/>
</filter>
</defs>
</svg>
