<svg width="290" height="213" viewBox="0 0 290 213" fill="none" xmlns="http://www.w3.org/2000/svg">
<g filter="url(#filter0_d_248_58)">
<rect width="285" height="208" rx="30" fill="black"/>
</g>
<path d="M187.138 75.875C185.848 75.875 184.902 76.925 185.038 78.2047C185.038 78.2047 185.188 79.6297 185.188 80.5625C185.188 85.7422 180.992 89.9375 175.812 89.9375C170.633 89.9375 166.438 85.7422 166.438 80.5625C166.438 79.6344 166.587 78.2047 166.587 78.2047C166.719 76.925 165.777 75.875 164.487 75.875H145.344C144.05 75.875 143 76.925 143 78.2188V97.3625C143 98.6516 141.95 99.5984 140.67 99.4625C140.67 99.4625 139.245 99.3125 138.312 99.3125C133.133 99.3125 128.938 103.508 128.938 108.688C128.938 113.867 133.133 118.062 138.312 118.062C139.241 118.062 140.67 117.913 140.67 117.913C141.95 117.781 143 118.723 143 120.013V134.469C143 135.762 144.05 136.812 145.344 136.812H164.487C165.777 136.812 166.723 135.763 166.587 134.483C166.587 134.483 166.438 133.058 166.438 132.125C166.438 126.945 170.633 122.75 175.812 122.75C180.992 122.75 185.188 126.945 185.188 132.125C185.188 133.053 185.038 134.483 185.038 134.483C184.906 135.763 185.848 136.812 187.138 136.812H196.906C198.2 136.812 199.25 135.762 199.25 134.469V78.2188C199.25 76.925 198.2 75.875 196.906 75.875H187.138Z" fill="#9615DB"/>
<path d="M124.25 108.688C124.25 100.934 130.559 94.625 138.312 94.625V78.2188C138.312 76.925 137.262 75.875 135.969 75.875H116.825C115.536 75.875 114.589 74.825 114.725 73.5453C114.725 73.5453 114.875 72.1156 114.875 71.1875C114.875 66.0078 110.68 61.8125 105.5 61.8125C100.32 61.8125 96.125 66.0078 96.125 71.1875C96.125 72.1156 96.275 73.5453 96.275 73.5453C96.4063 74.825 95.4641 75.875 94.175 75.875H89.0938C87.8 75.875 86.75 76.925 86.75 78.2188V134.469C86.75 135.762 87.8 136.812 89.0938 136.812H94.175C95.4641 136.812 96.4109 137.862 96.275 139.142C96.275 139.142 96.125 140.572 96.125 141.5C96.125 146.68 100.32 150.875 105.5 150.875C110.68 150.875 114.875 146.68 114.875 141.5C114.875 140.572 114.725 139.142 114.725 139.142C114.594 137.862 115.536 136.812 116.825 136.812H135.969C137.262 136.812 138.312 135.762 138.312 134.469V122.75C130.559 122.75 124.25 116.441 124.25 108.688Z" fill="#9615DB"/>
<defs>
<filter id="filter0_d_248_58" x="0" y="0" width="290" height="213" filterUnits="userSpaceOnUse" color-interpolation-filters="sRGB">
<feFlood flood-opacity="0" result="BackgroundImageFix"/>
<feColorMatrix in="SourceAlpha" type="matrix" values="0 0 0 0 0 0 0 0 0 0 0 0 0 0 0 0 0 0 127 0" result="hardAlpha"/>
<feOffset dx="5" dy="5"/>
<feComposite in2="hardAlpha" operator="out"/>
<feColorMatrix type="matrix" values="0 0 0 0 0 0 0 0 0 0 0 0 0 0 0 0 0 0 0.25 0"/>
<feBlend mode="normal" in2="BackgroundImageFix" result="effect1_dropShadow_248_58"/>
<feBlend mode="normal" in="SourceGraphic" in2="effect1_dropShadow_248_58" result="shape"/>
</filter>
</defs>
</svg>
