<svg xmlns="http://www.w3.org/2000/svg" xmlns:xlink="http://www.w3.org/1999/xlink" width="250" zoomAndPan="magnify" viewBox="0 0 187.5 187.499992" height="250" preserveAspectRatio="xMidYMid meet" version="1.0"><defs><clipPath id="19b947ceb1"><path d="M 23 29.335938 L 187 29.335938 L 187 87 L 23 87 Z M 23 29.335938 " clip-rule="nonzero"/></clipPath><clipPath id="9b66dd9b3f"><path d="M 30 88 L 35 88 L 35 157.992188 L 30 157.992188 Z M 30 88 " clip-rule="nonzero"/></clipPath><clipPath id="847e341f30"><path d="M 175 88 L 180 88 L 180 157.992188 L 175 157.992188 Z M 175 88 " clip-rule="nonzero"/></clipPath><clipPath id="a471e4f308"><path d="M 0 132 L 27 132 L 27 157.992188 L 0 157.992188 Z M 0 132 " clip-rule="nonzero"/></clipPath><clipPath id="d7c75f76a6"><path d="M 39 91 L 62 91 L 62 157.992188 L 39 157.992188 Z M 39 91 " clip-rule="nonzero"/></clipPath><clipPath id="ce62a3d702"><path d="M 63 113 L 85 113 L 85 157.992188 L 63 157.992188 Z M 63 113 " clip-rule="nonzero"/></clipPath></defs><g clip-path="url(#19b947ceb1)"><path fill="#9615db" d="M 105.105469 29.351562 C 105.101562 29.355469 69.078125 58.945312 23.226562 71.578125 L 23.226562 81.761719 C 23.226562 84.394531 25.378906 86.546875 28.007812 86.546875 L 28.015625 86.546875 C 30.117188 86.546875 31.910156 85.171875 32.546875 83.277344 C 33.183594 85.171875 34.976562 86.546875 37.078125 86.546875 L 37.085938 86.546875 C 39.1875 86.546875 40.980469 85.171875 41.617188 83.277344 C 42.253906 85.171875 44.046875 86.546875 46.148438 86.546875 L 46.15625 86.546875 C 48.257812 86.546875 50.050781 85.171875 50.6875 83.277344 C 51.324219 85.171875 53.117188 86.546875 55.21875 86.546875 L 55.226562 86.546875 C 57.328125 86.546875 59.121094 85.171875 59.757812 83.277344 C 60.394531 85.171875 62.1875 86.546875 64.289062 86.546875 L 64.296875 86.546875 C 66.398438 86.546875 68.191406 85.171875 68.828125 83.277344 C 69.464844 85.171875 71.257812 86.546875 73.359375 86.546875 L 73.363281 86.546875 C 75.46875 86.546875 77.261719 85.171875 77.898438 83.277344 C 78.535156 85.171875 80.328125 86.546875 82.429688 86.546875 L 82.433594 86.546875 C 84.535156 86.546875 86.328125 85.171875 86.96875 83.277344 C 87.605469 85.171875 89.398438 86.546875 91.5 86.546875 L 91.503906 86.546875 C 93.605469 86.546875 95.398438 85.171875 96.039062 83.277344 C 96.675781 85.171875 98.46875 86.546875 100.570312 86.546875 L 100.574219 86.546875 C 102.675781 86.546875 104.46875 85.171875 105.105469 83.277344 C 105.746094 85.171875 107.539062 86.546875 109.640625 86.546875 L 109.644531 86.546875 C 111.746094 86.546875 113.539062 85.171875 114.175781 83.277344 C 114.816406 85.171875 116.605469 86.546875 118.710938 86.546875 L 118.714844 86.546875 C 120.816406 86.546875 122.609375 85.171875 123.246094 83.277344 C 123.882812 85.171875 125.675781 86.546875 127.78125 86.546875 L 127.785156 86.546875 C 129.886719 86.546875 131.679688 85.171875 132.316406 83.277344 C 132.953125 85.171875 134.746094 86.546875 136.847656 86.546875 L 136.855469 86.546875 C 138.957031 86.546875 140.75 85.171875 141.386719 83.277344 C 142.023438 85.171875 143.816406 86.546875 145.917969 86.546875 L 145.925781 86.546875 C 148.027344 86.546875 149.820312 85.171875 150.457031 83.277344 C 151.09375 85.171875 152.886719 86.546875 154.988281 86.546875 L 154.996094 86.546875 C 157.097656 86.546875 158.890625 85.171875 159.527344 83.277344 C 160.164062 85.171875 161.957031 86.546875 164.058594 86.546875 L 164.066406 86.546875 C 166.167969 86.546875 167.960938 85.171875 168.597656 83.277344 C 169.234375 85.171875 171.027344 86.546875 173.128906 86.546875 L 173.136719 86.546875 C 175.238281 86.546875 177.03125 85.171875 177.667969 83.277344 C 178.304688 85.171875 180.097656 86.546875 182.199219 86.546875 L 182.203125 86.546875 C 184.835938 86.546875 186.988281 84.394531 186.988281 81.761719 L 186.988281 71.578125 C 141.132812 58.945312 105.105469 29.351562 105.105469 29.351562 Z M 105.105469 29.351562 " fill-opacity="1" fill-rule="nonzero"/></g><g clip-path="url(#9b66dd9b3f)"><path fill="#9615db" d="M 30.328125 88.898438 L 34.800781 88.898438 L 34.800781 157.152344 L 30.328125 157.152344 Z M 30.328125 88.898438 " fill-opacity="1" fill-rule="nonzero"/></g><g clip-path="url(#847e341f30)"><path fill="#9615db" d="M 175.40625 88.898438 L 179.882812 88.898438 L 179.882812 157.152344 L 175.40625 157.152344 Z M 175.40625 88.898438 " fill-opacity="1" fill-rule="nonzero"/></g><g clip-path="url(#a471e4f308)"><path fill="#9615db" d="M 26.363281 143.742188 L 13.96875 133.1875 C 13.769531 133.019531 13.535156 132.914062 13.296875 132.859375 C 11.726562 132.257812 9.320312 132.757812 7.871094 135.28125 C 5.820312 138.90625 5.054688 141.378906 4.734375 145.742188 C 4.738281 147.523438 5.375 148.539062 6.238281 149.144531 L 7.734375 152.472656 L 2.445312 152.472656 C 1.097656 152.472656 0 153.566406 0 154.917969 C 0 156.269531 1.09375 157.367188 2.445312 157.367188 L 11.515625 157.367188 C 12.347656 157.367188 13.121094 156.945312 13.570312 156.25 C 14.023438 155.550781 14.089844 154.671875 13.75 153.917969 L 11.96875 149.953125 L 16.039062 148.425781 L 18.773438 156.027344 C 19.132812 157.027344 20.070312 157.648438 21.074219 157.648438 C 21.351562 157.648438 21.628906 157.601562 21.902344 157.503906 C 23.175781 157.046875 23.835938 155.644531 23.378906 154.371094 L 19.808594 144.433594 C 19.585938 143.820312 19.125 143.316406 18.53125 143.042969 C 17.9375 142.765625 17.257812 142.742188 16.644531 142.972656 L 11.960938 144.730469 C 12.574219 142.230469 13.664062 139.777344 14.417969 137.902344 C 14.445312 137.851562 14.464844 137.796875 14.488281 137.746094 L 24.335938 146.128906 C 24.628906 146.378906 24.988281 146.503906 25.347656 146.503906 C 25.792969 146.503906 26.230469 146.316406 26.542969 145.953125 C 27.101562 145.292969 27.023438 144.304688 26.363281 143.742188 Z M 26.363281 143.742188 " fill-opacity="1" fill-rule="nonzero"/></g><path fill="#9615db" d="M 21.820312 126.59375 C 21.738281 126.582031 21.664062 126.566406 21.585938 126.554688 C 20.953125 125.632812 19.972656 124.949219 18.785156 124.722656 C 16.394531 124.261719 14.089844 125.828125 13.628906 128.21875 C 13.171875 130.605469 14.738281 132.914062 17.125 133.371094 C 19.316406 133.792969 21.433594 132.507812 22.125 130.449219 C 21.738281 130.355469 21.339844 130.234375 20.929688 130.089844 C 18.78125 129.320312 17.238281 128.125 17.429688 127.390625 C 17.597656 128.113281 19.214844 128.953125 21.289062 129.351562 C 22.859375 129.652344 24.277344 129.621094 25.058594 129.328125 C 25.417969 129.195312 25.640625 129.003906 25.6875 128.765625 C 25.832031 128.003906 24.101562 127.03125 21.820312 126.59375 Z M 21.820312 126.59375 " fill-opacity="1" fill-rule="nonzero"/><g clip-path="url(#d7c75f76a6)"><path fill="#9615db" d="M 39.609375 157.402344 L 41.457031 157.664062 L 45.265625 130.859375 L 53.910156 130.859375 C 54.285156 132.234375 54.730469 133.664062 55.273438 135.132812 C 55.519531 135.789062 56.023438 136.273438 56.625 136.515625 L 59.628906 157.664062 L 61.476562 157.402344 L 58.503906 136.488281 C 59.652344 135.980469 60.222656 134.660156 59.777344 133.464844 C 57.433594 127.136719 57.019531 121.503906 57.015625 118.355469 C 58.007812 117.949219 58.855469 117.09375 59.203125 115.3125 C 59.699219 111.046875 59.417969 108.523438 58.109375 104.648438 C 57.144531 101.832031 54.765625 100.941406 53.125 101.351562 C 53.046875 101.371094 52.96875 101.398438 52.894531 101.429688 C 50.628906 99.523438 46.1875 95.640625 43.644531 92.460938 C 43.113281 91.800781 42.148438 91.691406 41.484375 92.222656 C 40.820312 92.753906 40.714844 93.71875 41.246094 94.382812 C 44.085938 97.9375 48.929688 102.125 51.179688 104.003906 C 51.125 104.410156 51.117188 104.832031 51.171875 105.25 L 47.023438 105.25 Z M 51.546875 107.113281 C 52.007812 109.386719 52.5625 112.207031 52.421875 114.804688 C 52.394531 114.910156 52.371094 115.015625 52.355469 115.125 C 52.320312 115.421875 51.648438 121.164062 53.445312 128.992188 L 45.53125 128.992188 L 48.640625 107.113281 Z M 51.546875 107.113281 " fill-opacity="1" fill-rule="nonzero"/></g><path fill="#9615db" d="M 51.492188 94.820312 C 53.507812 95.316406 55.292969 95.226562 55.738281 94.652344 C 55.609375 95.382812 53.746094 95.820312 51.511719 95.628906 C 51.085938 95.589844 50.679688 95.535156 50.296875 95.460938 C 50.070312 97.578125 51.4375 99.589844 53.5625 100.113281 C 55.882812 100.679688 58.222656 99.261719 58.789062 96.941406 C 59.359375 94.621094 57.941406 92.28125 55.621094 91.714844 C 54.46875 91.433594 53.3125 91.640625 52.371094 92.207031 C 52.296875 92.1875 52.222656 92.164062 52.148438 92.144531 C 49.929688 91.605469 47.988281 91.761719 47.808594 92.5 C 47.75 92.734375 47.875 92.992188 48.136719 93.257812 C 48.714844 93.84375 49.972656 94.449219 51.492188 94.820312 Z M 51.492188 94.820312 " fill-opacity="1" fill-rule="nonzero"/><g clip-path="url(#ce62a3d702)"><path fill="#9615db" d="M 63.464844 114.671875 C 63.140625 115.492188 63.542969 116.421875 64.363281 116.746094 L 76.058594 121.371094 C 75.792969 122.226562 75.769531 123.230469 76.035156 124.152344 C 76.53125 126.667969 77.363281 130.171875 77.1875 133.351562 C 77.15625 133.46875 77.128906 133.589844 77.117188 133.71875 L 74.855469 154.410156 C 74.707031 155.78125 75.695312 157.015625 77.066406 157.164062 C 77.160156 157.175781 77.25 157.179688 77.339844 157.179688 C 78.597656 157.179688 79.679688 156.234375 79.820312 154.953125 L 81.769531 137.113281 C 82.882812 136.726562 83.855469 135.839844 84.238281 133.875 C 84.753906 129.4375 84.460938 126.816406 83.101562 122.785156 C 82.425781 120.8125 81.078125 119.753906 79.75 119.398438 C 79.730469 119.390625 79.710938 119.375 79.691406 119.367188 L 65.539062 113.773438 C 64.71875 113.449219 63.789062 113.851562 63.464844 114.671875 Z M 63.464844 114.671875 " fill-opacity="1" fill-rule="nonzero"/></g><path fill="#9615db" d="M 77.070312 111.847656 C 79.03125 112.753906 80.871094 113.015625 81.4375 112.515625 C 81.160156 113.238281 79.171875 113.316406 76.929688 112.675781 C 76.503906 112.554688 76.097656 112.414062 75.722656 112.261719 C 75.074219 114.378906 76.066406 116.703125 78.132812 117.660156 C 80.386719 118.699219 83.058594 117.714844 84.097656 115.460938 C 85.140625 113.207031 84.15625 110.539062 81.902344 109.496094 C 80.78125 108.980469 79.5625 108.964844 78.488281 109.351562 C 78.414062 109.316406 78.34375 109.28125 78.269531 109.246094 C 76.117188 108.253906 74.101562 108.027344 73.769531 108.746094 C 73.667969 108.972656 73.742188 109.261719 73.957031 109.585938 C 74.433594 110.296875 75.59375 111.164062 77.070312 111.847656 Z M 77.070312 111.847656 " fill-opacity="1" fill-rule="nonzero"/><path fill="#9615db" d="M 89.953125 149.195312 L 106.113281 149.195312 L 106.113281 156.902344 L 89.953125 156.902344 Z M 89.953125 149.195312 " fill-opacity="1" fill-rule="nonzero"/><path fill="#9615db" d="M 108.972656 140.988281 L 124.886719 140.988281 L 124.886719 156.902344 L 108.972656 156.902344 Z M 108.972656 140.988281 " fill-opacity="1" fill-rule="nonzero"/></svg>